# xmcd
#
# Track frame offsets: 
#        150
#        21309
#        43902
#        63502
#        84102
#        103176
#        122740
#        141671
#        160656
#        179091
#        196210
#        216710
#        239987
#        257759
#        276599
#
# Disc length: 4010 seconds
#
# Revision: 0
# Processed by: cddbd v1.5.2PL0 Copyright (c) Steve Scherf et al.
# Submitted via: ExactAudioCopyFreeDBPlugin 1.0
#
DISCID=f70fa80f
DTITLE=群星 - DTS 声醉情迷十五情歌
DYEAR=2012
DGENRE=Acid
TTITLE0=怪胎
TTITLE1=画心
TTITLE2=心碎
TTITLE3=猜不透
TTITLE4=多年以后
TTITLE5=爱的不是我
TTITLE6=原谅我一次
TTITLE7=爱到底怎么了
TTITLE8=被爱伤害以后
TTITLE9=爱上别人的人
TTITLE10=我爱你你却爱着他
TTITLE11=你怎么可以爱上别的男人
TTITLE12=多情的我遇上绝情的你
TTITLE13=爱的越深伤的越深
TTITLE14=最后一声说我爱你
EXTD=
EXTT0=
EXTT1=
EXTT2=
EXTT3=
EXTT4=
EXTT5=
EXTT6=
EXTT7=
EXTT8=
EXTT9=
EXTT10=
EXTT11=
EXTT12=
EXTT13=
EXTT14=
PLAYORDER=
